<svg width="14" height="14" viewBox="0 0 14 14" fill="none" xmlns="http://www.w3.org/2000/svg">
<path d="M6.54178 1.91589C5.6267 1.91589 4.73217 2.18725 3.9713 2.69564C3.21044 3.20403 2.61742 3.92663 2.26723 4.77206C1.91704 5.61748 1.82542 6.54777 2.00394 7.44527C2.18247 8.34277 2.62312 9.16717 3.27018 9.81423C3.91724 10.4613 4.74165 10.9019 5.63915 11.0805C6.53665 11.259 7.46693 11.1674 8.31236 10.8172C9.15778 10.467 9.88038 9.87398 10.3888 9.11311C10.8972 8.35225 11.1685 7.45772 11.1685 6.54263C11.1668 5.31609 10.6787 4.14028 9.81143 3.27298C8.94413 2.40568 7.76833 1.91766 6.54178 1.91589ZM5.73177 6.76597C5.73177 7.09931 5.73177 8.09933 4.71342 8.09933C3.69507 8.09933 3.69507 7.09931 3.69507 6.76597C3.70077 6.68876 3.73547 6.61656 3.7922 6.56387C3.84893 6.51118 3.92348 6.48189 4.00091 6.48189C4.07833 6.48189 4.15289 6.51118 4.20962 6.56387C4.26634 6.61656 4.30104 6.68876 4.30675 6.76597C4.30675 7.31598 4.38841 7.47932 4.71342 7.47932C5.03842 7.47932 5.12176 7.31265 5.12176 6.76597V4.24093C5.12346 4.16057 5.15614 4.08398 5.21298 4.02714C5.26981 3.97031 5.34641 3.93763 5.42676 3.93593C5.4688 3.93742 5.51012 3.94726 5.5483 3.9649C5.58649 3.98253 5.62078 4.0076 5.64918 4.03863C5.67757 4.06966 5.6995 4.10604 5.71368 4.14564C5.72786 4.18524 5.73401 4.22726 5.73177 4.26926V6.7693V6.76597ZM6.14011 6.80764V4.26093C6.14011 4.18004 6.17224 4.10246 6.22944 4.04526C6.28664 3.98806 6.36422 3.95593 6.44511 3.95593C6.52601 3.95593 6.60358 3.98806 6.66078 4.04526C6.71798 4.10246 6.75012 4.18004 6.75012 4.26093V6.50263H7.56513V5.87096C7.56513 5.8309 7.57302 5.79124 7.58835 5.75424C7.60368 5.71723 7.62614 5.68361 7.65447 5.65529C7.68279 5.62696 7.71641 5.6045 7.75342 5.58917C7.79042 5.57384 7.83008 5.56595 7.87014 5.56595C7.91019 5.56595 7.94985 5.57384 7.98686 5.58917C8.02386 5.6045 8.05748 5.62696 8.08581 5.65529C8.11413 5.68361 8.1366 5.71723 8.15192 5.75424C8.16725 5.79124 8.17514 5.8309 8.17514 5.87096V6.80764C8.17344 6.888 8.14076 6.96459 8.08392 7.02143C8.02709 7.07826 7.9505 7.11094 7.87014 7.11264H6.44511C6.36475 7.11094 6.28816 7.07826 6.23133 7.02143C6.17449 6.96459 6.14181 6.888 6.14011 6.80764ZM8.07347 7.80765C8.07314 7.88801 8.04901 7.96648 8.00413 8.03313C7.95924 8.09979 7.89561 8.15166 7.82128 8.18218C7.74694 8.21271 7.66522 8.22052 7.58644 8.20464C7.50767 8.18876 7.43536 8.1499 7.37865 8.09296C7.32195 8.03602 7.28338 7.96356 7.26782 7.88471C7.25227 7.80587 7.26042 7.72419 7.29124 7.64998C7.32207 7.57577 7.3742 7.51235 7.44104 7.46774C7.50788 7.42312 7.58644 7.39932 7.6668 7.39931C7.77466 7.39931 7.8781 7.44216 7.95436 7.51843C8.03063 7.59469 8.07347 7.69813 8.07347 7.80599V7.80765ZM6.64845 8.21433C6.56802 8.21433 6.48939 8.19048 6.42251 8.14579C6.35564 8.1011 6.30351 8.03759 6.27273 7.96328C6.24195 7.88897 6.2339 7.8072 6.24959 7.72832C6.26528 7.64943 6.30401 7.57697 6.36089 7.52009C6.41776 7.46322 6.49022 7.42449 6.56911 7.4088C6.648 7.3931 6.72977 7.40116 6.80408 7.43194C6.87839 7.46272 6.9419 7.51484 6.98659 7.58172C7.03127 7.6486 7.05512 7.72722 7.05512 7.80765C7.05468 7.91522 7.01164 8.01823 6.93542 8.09414C6.85921 8.17004 6.75602 8.21266 6.64845 8.21266V8.21433ZM7.26013 9.15101C7.22007 9.15101 7.18041 9.14312 7.14341 9.12779C7.1064 9.11246 7.07278 9.09 7.04446 9.06168C7.01613 9.03335 6.99367 8.99973 6.97834 8.96272C6.96301 8.92572 6.95512 8.88606 6.95512 8.846C6.95512 8.80595 6.96301 8.76629 6.97834 8.72928C6.99367 8.69228 7.01613 8.65866 7.04446 8.63033C7.07278 8.60201 7.1064 8.57954 7.14341 8.56422C7.18041 8.54889 7.22007 8.541 7.26013 8.541C8.31848 8.541 8.99015 7.52265 8.99015 5.87429C8.99015 5.79318 9.02238 5.71539 9.07973 5.65803C9.13709 5.60067 9.21488 5.56845 9.29599 5.56845C9.37711 5.56845 9.4549 5.60067 9.51225 5.65803C9.56961 5.71539 9.60183 5.79318 9.60183 5.87429C9.60183 7.86599 8.68515 9.14934 7.26013 9.14934V9.15101Z" fill="#00A79D"/>
<path d="M6.54177 0C5.24793 0 3.98315 0.383668 2.90736 1.10249C1.83157 1.82131 0.993097 2.84299 0.497966 4.03834C0.00283437 5.2337 -0.126714 6.54903 0.125701 7.81801C0.378117 9.08699 1.00116 10.2526 1.91604 11.1675C2.83093 12.0824 3.99656 12.7054 5.26554 12.9578C6.53452 13.2103 7.84985 13.0807 9.0452 12.5856C10.2406 12.0904 11.2622 11.252 11.9811 10.1762C12.6999 9.1004 13.0835 7.83561 13.0835 6.54177C13.0831 4.80692 12.3937 3.14325 11.167 1.91653C9.94029 0.689804 8.27662 0.000441831 6.54177 0ZM6.54177 11.6469C5.53208 11.6469 4.54507 11.3474 3.70554 10.7865C2.86602 10.2255 2.21169 9.42823 1.82529 8.4954C1.4389 7.56257 1.3378 6.53611 1.53479 5.54582C1.73177 4.55553 2.21798 3.64589 2.93194 2.93193C3.64589 2.21797 4.55553 1.73176 5.54582 1.53478C6.53611 1.3378 7.56257 1.4389 8.4954 1.82529C9.42824 2.21168 10.2255 2.86601 10.7865 3.70554C11.3474 4.54507 11.6469 5.53208 11.6469 6.54177C11.6451 7.89518 11.1067 9.19265 10.1497 10.1497C9.19266 11.1067 7.89518 11.6451 6.54177 11.6469Z" fill="#00A79D"/>
</svg>
