<svg width="6" height="8" viewBox="0 0 6 8" fill="none" xmlns="http://www.w3.org/2000/svg">
<path d="M1.9055 1.22435C1.9055 1.16381 1.92336 1.10464 1.95681 1.0543C1.99026 1.00396 2.03781 0.964732 2.09344 0.941564C2.14908 0.918397 2.21029 0.912336 2.26935 0.924146C2.32841 0.935957 2.38266 0.965109 2.42524 1.00792C2.46782 1.05072 2.49681 1.10526 2.50856 1.16464C2.52031 1.22401 2.51428 1.28556 2.49123 1.34149C2.46819 1.39742 2.42917 1.44522 2.3791 1.47886C2.32903 1.51249 2.27017 1.53044 2.20995 1.53044C2.12953 1.52938 2.0527 1.4968 1.99583 1.43962C1.93896 1.38245 1.90655 1.3052 1.9055 1.22435ZM3.46025 1.53044C3.52046 1.53044 3.57933 1.51249 3.62939 1.47886C3.67946 1.44522 3.71848 1.39742 3.74153 1.34149C3.76457 1.28556 3.7706 1.22401 3.75885 1.16464C3.74711 1.10526 3.71811 1.05072 3.67553 1.00792C3.63295 0.965109 3.5787 0.935957 3.51964 0.924146C3.46059 0.912336 3.39937 0.918397 3.34374 0.941564C3.28811 0.964732 3.24056 1.00396 3.2071 1.0543C3.17365 1.10464 3.15579 1.16381 3.15579 1.22435C3.15685 1.3052 3.18926 1.38245 3.24613 1.43962C3.303 1.4968 3.37983 1.52938 3.46025 1.53044ZM2.84322 2.73847C2.92351 2.73847 3.00199 2.71453 3.06875 2.66969C3.1355 2.62485 3.18754 2.56111 3.21826 2.48653C3.24898 2.41196 3.25702 2.3299 3.24136 2.25073C3.2257 2.17157 3.18703 2.09885 3.13026 2.04177C3.07349 1.98469 3.00116 1.94582 2.92242 1.93008C2.84367 1.91433 2.76205 1.92241 2.68787 1.9533C2.6137 1.98419 2.5503 2.0365 2.50569 2.10361C2.46109 2.17073 2.43728 2.24963 2.43728 2.33035C2.43728 2.43859 2.48005 2.5424 2.55618 2.61893C2.63231 2.69547 2.73556 2.73847 2.84322 2.73847ZM1.56451 2.73847C1.6448 2.73847 1.72328 2.71453 1.79004 2.66969C1.85679 2.62485 1.90883 2.56111 1.93955 2.48653C1.97027 2.41196 1.97831 2.3299 1.96265 2.25073C1.94699 2.17157 1.90832 2.09885 1.85155 2.04177C1.79478 1.98469 1.72245 1.94582 1.64371 1.93008C1.56496 1.91433 1.48334 1.92241 1.40916 1.9533C1.33499 1.98419 1.27159 2.0365 1.22698 2.10361C1.18238 2.17073 1.15857 2.24963 1.15857 2.33035C1.15857 2.43859 1.20134 2.5424 1.27747 2.61893C1.3536 2.69547 1.45685 2.73847 1.56451 2.73847ZM4.12193 2.73847C4.20222 2.73847 4.2807 2.71453 4.34746 2.66969C4.41422 2.62485 4.46625 2.56111 4.49697 2.48653C4.52769 2.41196 4.53573 2.3299 4.52007 2.25073C4.50441 2.17157 4.46574 2.09885 4.40897 2.04177C4.3522 1.98469 4.27987 1.94582 4.20113 1.93008C4.12238 1.91433 4.04076 1.92241 3.96658 1.9533C3.89241 1.98419 3.82901 2.0365 3.7844 2.10361C3.7398 2.17073 3.71599 2.24963 3.71599 2.33035C3.71599 2.38395 3.72649 2.43702 3.74689 2.48653C3.76729 2.53605 3.79719 2.58104 3.83489 2.61893C3.87258 2.65683 3.91733 2.68689 3.96658 2.7074C4.01583 2.72791 4.06862 2.73847 4.12193 2.73847ZM2.20184 3.05272C2.12155 3.05272 2.04306 3.07666 1.97631 3.1215C1.90955 3.16635 1.85752 3.23008 1.8268 3.30466C1.79607 3.37923 1.78803 3.46129 1.8037 3.54046C1.81936 3.61963 1.85802 3.69234 1.91479 3.74942C1.97156 3.8065 2.0439 3.84537 2.12264 3.86111C2.20139 3.87686 2.28301 3.86878 2.35718 3.83789C2.43136 3.807 2.49476 3.75469 2.53936 3.68758C2.58397 3.62046 2.60778 3.54156 2.60778 3.46084C2.60778 3.3526 2.56501 3.24879 2.48888 3.17226C2.41275 3.09572 2.3095 3.05272 2.20184 3.05272ZM3.48461 3.05272C3.40432 3.05272 3.32583 3.07666 3.25908 3.1215C3.19232 3.16635 3.14029 3.23008 3.10957 3.30466C3.07884 3.37923 3.0708 3.46129 3.08647 3.54046C3.10213 3.61963 3.14079 3.69234 3.19756 3.74942C3.25433 3.8065 3.32667 3.84537 3.40541 3.86111C3.48415 3.87686 3.56578 3.86878 3.63995 3.83789C3.71413 3.807 3.77753 3.75469 3.82213 3.68758C3.86674 3.62046 3.89054 3.54156 3.89054 3.46084C3.89054 3.3526 3.84778 3.24879 3.77165 3.17226C3.69552 3.09572 3.59227 3.05272 3.48461 3.05272ZM2.43728 6.12177C2.43728 6.24284 2.40157 6.3612 2.33466 6.46187C2.26775 6.56254 2.17265 6.64101 2.06139 6.68734C1.95013 6.73368 1.8277 6.7458 1.70958 6.72218C1.59146 6.69856 1.48296 6.64025 1.39781 6.55464C1.31265 6.46903 1.25466 6.35995 1.23116 6.2412C1.20767 6.12244 1.21972 5.99936 1.26581 5.8875C1.3119 5.77564 1.38994 5.68003 1.49008 5.61276C1.59021 5.54549 1.70794 5.50959 1.82837 5.50959C1.98986 5.50959 2.14474 5.57409 2.25894 5.68889C2.37313 5.8037 2.43728 5.95941 2.43728 6.12177ZM2.03134 6.12177C2.03134 6.08141 2.01944 6.04195 1.99713 6.0084C1.97483 5.97484 1.94313 5.94869 1.90604 5.93324C1.86896 5.9178 1.82815 5.91375 1.78877 5.92163C1.7494 5.9295 1.71324 5.94894 1.68485 5.97747C1.65646 6.00601 1.63713 6.04237 1.6293 6.08196C1.62147 6.12154 1.62549 6.16257 1.64085 6.19986C1.65621 6.23714 1.68223 6.26901 1.71561 6.29143C1.74899 6.31386 1.78823 6.32582 1.82837 6.32582C1.8822 6.32582 1.93383 6.30433 1.97189 6.26606C2.00996 6.22779 2.03134 6.17589 2.03134 6.12177ZM4.46698 6.12177C4.46698 6.24284 4.43127 6.3612 4.36436 6.46187C4.29745 6.56254 4.20235 6.64101 4.09109 6.68734C3.97983 6.73368 3.85739 6.7458 3.73928 6.72218C3.62116 6.69856 3.51266 6.64025 3.42751 6.55464C3.34235 6.46903 3.28435 6.35995 3.26086 6.2412C3.23737 6.12244 3.24942 5.99936 3.29551 5.8875C3.3416 5.77564 3.41964 5.68003 3.51978 5.61276C3.61991 5.54549 3.73764 5.50959 3.85807 5.50959C4.01956 5.50959 4.17444 5.57409 4.28863 5.68889C4.40283 5.8037 4.46698 5.95941 4.46698 6.12177ZM4.06104 6.12177C4.06104 6.08141 4.04914 6.04195 4.02683 6.0084C4.00453 5.97484 3.97283 5.94869 3.93574 5.93324C3.89865 5.9178 3.85784 5.91375 3.81847 5.92163C3.7791 5.9295 3.74293 5.94894 3.71455 5.97747C3.68616 6.00601 3.66683 6.04237 3.659 6.08196C3.65117 6.12154 3.65519 6.16257 3.67055 6.19986C3.68591 6.23714 3.71193 6.26901 3.74531 6.29143C3.77868 6.31386 3.81793 6.32582 3.85807 6.32582C3.9119 6.32582 3.96353 6.30433 4.00159 6.26606C4.03966 6.22779 4.06104 6.17589 4.06104 6.12177ZM5.6848 6.12177C5.6848 6.55472 5.51372 6.96995 5.20921 7.2761C4.9047 7.58224 4.49169 7.75424 4.06104 7.75424H1.6254C1.23454 7.75424 0.856791 7.61249 0.561511 7.35502C0.266232 7.09755 0.0732383 6.74164 0.0179618 6.35263C-0.0373146 5.96362 0.0488364 5.56762 0.260598 5.23733C0.47236 4.90704 0.79552 4.66462 1.17075 4.55459C0.569398 4.1151 0.16332 3.45617 0.0396203 2.71915C-0.084079 1.98213 0.0844537 1.22572 0.509067 0.612177C0.671035 0.381397 0.865166 0.175229 1.0855 0H4.60094C4.82127 0.175229 5.01541 0.381397 5.17737 0.612177C5.60199 1.22572 5.77052 1.98213 5.64682 2.71915C5.52312 3.45617 5.11704 4.1151 4.51569 4.55459C4.85297 4.65349 5.14925 4.85971 5.36005 5.14228C5.57085 5.42486 5.6848 5.76855 5.6848 6.12177ZM2.84322 4.4893C3.43536 4.4893 4.00325 4.25281 4.42196 3.83185C4.84066 3.4109 5.07589 2.83996 5.07589 2.24465C5.07669 1.7854 4.93477 1.33736 4.66995 0.963158C4.58339 0.835085 4.48261 0.717333 4.36955 0.612177H1.31283C1.19966 0.718383 1.09764 0.835994 1.00837 0.963158C0.775452 1.29991 0.638765 1.69439 0.613157 2.10376C0.587549 2.51312 0.673999 2.92171 0.863117 3.28515C1.05224 3.64859 1.33679 3.95298 1.68588 4.16527C2.03497 4.37756 2.43524 4.48962 2.84322 4.4893ZM5.07589 6.12177C5.07589 5.85117 4.96897 5.59165 4.77865 5.40031C4.58833 5.20897 4.33019 5.10147 4.06104 5.10147H1.6254C1.35625 5.10147 1.09812 5.20897 0.907794 5.40031C0.717473 5.59165 0.610552 5.85117 0.610552 6.12177C0.610552 6.39236 0.717473 6.65188 0.907794 6.84322C1.09812 7.03456 1.35625 7.14206 1.6254 7.14206H4.06104C4.19431 7.14206 4.32628 7.11567 4.44941 7.06439C4.57253 7.01312 4.68441 6.93797 4.77865 6.84322C4.87288 6.74848 4.94764 6.636 4.99864 6.51222C5.04964 6.38843 5.07589 6.25575 5.07589 6.12177Z" fill="#2E9E3A"/>
</svg>
