<svg width="204" height="36" viewBox="0 0 204 36" fill="none" xmlns="http://www.w3.org/2000/svg">
<path d="M11 22.1033V14.5411C11 13.9362 11.1554 13.3719 11.4706 12.8482C11.7858 12.3244 12.2089 11.8649 12.74 11.4729C13.2711 11.081 13.8971 10.7701 14.6052 10.5403C15.3176 10.3105 16.0818 10.1957 16.8936 10.1957H36.6899V12.6995H16.8936C16.5179 12.6995 16.1682 12.7468 15.8444 12.8448C15.5206 12.9428 15.2356 13.0746 14.9981 13.2368C14.7563 13.3989 14.5707 13.5983 14.4325 13.8247C14.2943 14.0545 14.2296 14.291 14.2296 14.5377V17.0652H33.5208V19.5927H14.2296V22.0965C14.2296 22.3432 14.2987 22.5798 14.4325 22.8095C14.5664 23.0392 14.7563 23.2353 14.9981 23.3975C15.2399 23.5597 15.5206 23.6915 15.8444 23.7894C16.1682 23.8874 16.5179 23.9381 16.8936 23.9381H36.6899V26.4656H16.8936C16.0775 26.4656 15.3133 26.3507 14.6052 26.1209C13.8928 25.8912 13.2711 25.5803 12.74 25.1883C12.2089 24.7964 11.7815 24.3334 11.4706 23.7996C11.1554 23.2792 11 22.7115 11 22.1033Z" fill="#00A79D"/>
<path d="M39.5137 10H43.6543L64.7674 23.7729V10H67.997V26.4727H63.8564L42.7433 12.6998V26.4727H39.5137V10Z" fill="#00A79D"/>
<path d="M93.6575 17.0956V19.6231H74.3663V22.1033C74.3663 22.3499 74.4355 22.5865 74.5693 22.8163C74.7031 23.046 74.8931 23.242 75.1349 23.4042C75.3766 23.5664 75.6573 23.6982 75.9811 23.7962C76.3049 23.8941 76.6546 23.9449 77.0303 23.9449H96.8266V26.4724H77.0303C76.2143 26.4724 75.4501 26.3575 74.742 26.1277C74.0296 25.8979 73.4078 25.587 72.8767 25.1951C72.3456 24.8031 71.9183 24.3402 71.6073 23.8063C71.2921 23.2758 71.1367 22.7048 71.1367 22.0999V17.0922H93.6575V17.0956ZM77.0346 10.1957H96.8309V12.6995H77.0346C76.9914 12.6995 76.9568 12.7029 76.9267 12.713C76.8965 12.7198 76.8576 12.7232 76.8144 12.7232V12.6995H71.7024C72.1816 11.9629 72.894 11.3614 73.8352 10.8951C74.7765 10.4322 75.843 10.1957 77.0346 10.1957Z" fill="#00A79D"/>
<path d="M98.3984 17.0937H119.823C120.198 17.0937 120.548 17.0464 120.872 16.9451C121.195 16.8471 121.476 16.7153 121.718 16.5531C121.96 16.3909 122.145 16.1949 122.284 15.9652C122.417 15.7354 122.486 15.4988 122.486 15.2522V14.5662C122.486 14.3196 122.417 14.083 122.284 13.8533C122.145 13.6235 121.96 13.4275 121.718 13.2653C121.476 13.1031 121.195 12.9714 120.872 12.8734C120.548 12.7754 120.198 12.7247 119.823 12.7247H98.3984V10.1972H119.823C120.639 10.1972 121.403 10.3121 122.111 10.5418C122.823 10.7716 123.445 11.0825 123.976 11.4745C124.507 11.8664 124.935 12.3293 125.246 12.8599C125.561 13.3937 125.716 13.9614 125.716 14.5662V15.2522C125.716 15.857 125.561 16.4247 125.246 16.9586C124.93 17.4891 124.507 17.952 123.976 18.344C123.445 18.736 122.819 19.0468 122.111 19.2766C121.398 19.5064 120.634 19.6213 119.823 19.6213H119.728L126.787 26.4705H122.646L115.557 19.6213H101.628V26.4705H98.3984V17.0937Z" fill="#00A79D"/>
<path d="M127.412 19.0116V17.6871C127.412 16.6565 127.662 15.6867 128.163 14.7778C128.664 13.8688 129.346 13.0815 130.201 12.4091C131.056 11.7366 132.067 11.2061 133.228 10.8142C134.389 10.4222 135.629 10.2262 136.945 10.2262H157.432V12.7537H136.945C136.069 12.7537 135.244 12.8855 134.484 13.1457C133.72 13.4059 133.055 13.7607 132.494 14.1999C131.928 14.6426 131.479 15.163 131.147 15.7577C130.81 16.3558 130.646 16.9978 130.646 17.6837V19.0083C130.646 19.6942 130.814 20.3396 131.147 20.9343C131.479 21.5324 131.933 22.0528 132.494 22.4921C133.06 22.9346 133.724 23.2861 134.484 23.5463C135.249 23.8098 136.069 23.9382 136.945 23.9382H150.373C151.125 23.9382 151.789 23.8403 152.364 23.6442C152.938 23.4483 153.421 23.1814 153.806 22.8468C154.194 22.5123 154.505 22.1237 154.747 21.681C154.989 21.2385 155.161 20.7721 155.265 20.2822H144.795L147.17 17.7547H158.624V19.0083C158.624 20.12 158.426 21.137 158.029 22.0528C157.631 22.9685 157.074 23.7557 156.349 24.408C155.628 25.0635 154.76 25.5704 153.745 25.9319C152.731 26.2934 151.608 26.4725 150.373 26.4725H136.945C135.629 26.4725 134.389 26.2766 133.228 25.8845C132.067 25.4926 131.06 24.9587 130.201 24.2897C129.342 23.6207 128.664 22.8299 128.163 21.921C127.662 21.012 127.412 20.0423 127.412 19.0116Z" fill="#00A79D"/>
<path d="M161.764 10H164.993V26.4727H161.764V10Z" fill="#00A79D"/>
<path d="M167.816 19.0116V17.6871C167.816 16.6565 168.067 15.6867 168.568 14.7778C169.07 13.8688 169.751 13.0815 170.606 12.4091C171.461 11.7366 172.472 11.2061 173.633 10.8142C174.795 10.4222 176.034 10.2262 177.35 10.2262H193.382V12.7537H177.35C176.474 12.7537 175.649 12.8855 174.89 13.1457C174.125 13.4059 173.46 13.7607 172.899 14.1999C172.333 14.6426 171.884 15.163 171.551 15.7577C171.216 16.3558 171.051 16.9978 171.051 17.6837V19.0083C171.051 19.6942 171.22 20.3396 171.551 20.9343C171.884 21.5324 172.338 22.0528 172.899 22.4921C173.464 22.9346 174.13 23.2861 174.89 23.5463C175.653 23.8098 176.474 23.9382 177.35 23.9382H193.382V26.4657H177.35C176.034 26.4657 174.795 26.2697 173.633 25.8778C172.472 25.4858 171.465 24.952 170.606 24.2829C169.746 23.6139 169.07 22.8232 168.568 21.9143C168.067 21.012 167.816 20.0423 167.816 19.0116Z" fill="#00A79D"/>
<path d="M152.719 16L149.774 19.1324L138.592 16.1318L152.719 16Z" fill="#00A79D"/>
</svg>
