<svg width="204" height="36" viewBox="0 0 204 36" fill="none" xmlns="http://www.w3.org/2000/svg">
<rect width="204" height="36" rx="8" fill="white" fill-opacity="0.8"/>
<path d="M11 22.1034V14.5412C11 13.9364 11.1554 13.3721 11.4706 12.8483C11.7858 12.3246 12.2089 11.865 12.74 11.4731C13.2711 11.0811 13.8971 10.7702 14.6052 10.5405C15.3176 10.3107 16.0818 10.1958 16.8936 10.1958H36.6899V12.6996H16.8936C16.5179 12.6996 16.1682 12.747 15.8444 12.8449C15.5206 12.9429 15.2356 13.0747 14.9981 13.2369C14.7563 13.3991 14.5707 13.5985 14.4325 13.8249C14.2943 14.0546 14.2296 14.2912 14.2296 14.5378V17.0653H33.5208V19.5928H14.2296V22.0967C14.2296 22.3433 14.2987 22.5799 14.4325 22.8096C14.5664 23.0394 14.7563 23.2354 14.9981 23.3976C15.2399 23.5598 15.5206 23.6916 15.8444 23.7896C16.1682 23.8875 16.5179 23.9382 16.8936 23.9382H36.6899V26.4658H16.8936C16.0775 26.4658 15.3133 26.3509 14.6052 26.121C13.8928 25.8913 13.2711 25.5804 12.74 25.1885C12.2089 24.7965 11.7815 24.3336 11.4706 23.7997C11.1554 23.2794 11 22.7117 11 22.1034Z" fill="#00A79D"/>
<path d="M39.5137 10H43.6543L64.7674 23.7729V10H67.997V26.4727H63.8564L42.7433 12.6998V26.4727H39.5137V10Z" fill="#00A79D"/>
<path d="M93.6575 17.0957V19.6232H74.3663V22.1034C74.3663 22.3501 74.4355 22.5867 74.5693 22.8164C74.7031 23.0461 74.8931 23.2422 75.1349 23.4044C75.3766 23.5666 75.6573 23.6984 75.9811 23.7963C76.3049 23.8943 76.6546 23.945 77.0303 23.945H96.8266V26.4725H77.0303C76.2143 26.4725 75.4501 26.3577 74.742 26.1278C74.0296 25.8981 73.4078 25.5872 72.8767 25.1952C72.3456 24.8033 71.9183 24.3403 71.6073 23.8065C71.2921 23.276 71.1367 22.7049 71.1367 22.1V17.0924H93.6575V17.0957ZM77.0346 10.1958H96.8309V12.6996H77.0346C76.9914 12.6996 76.9568 12.703 76.9267 12.7132C76.8965 12.7199 76.8576 12.7233 76.8144 12.7233V12.6996H71.7024C72.1816 11.963 72.894 11.3616 73.8352 10.8953C74.7765 10.4323 75.843 10.1958 77.0346 10.1958Z" fill="#00A79D"/>
<path d="M98.3984 17.0938H119.823C120.198 17.0938 120.548 17.0465 120.872 16.9452C121.195 16.8472 121.476 16.7154 121.718 16.5532C121.96 16.391 122.145 16.195 122.284 15.9652C122.417 15.7355 122.486 15.4989 122.486 15.2523V14.5663C122.486 14.3197 122.417 14.0831 122.284 13.8534C122.145 13.6236 121.96 13.4276 121.718 13.2654C121.476 13.1032 121.195 12.9714 120.872 12.8735C120.548 12.7755 120.198 12.7248 119.823 12.7248H98.3984V10.1973H119.823C120.639 10.1973 121.403 10.3122 122.111 10.5419C122.823 10.7717 123.445 11.0826 123.976 11.4745C124.507 11.8665 124.935 12.3294 125.246 12.8599C125.561 13.3938 125.716 13.9615 125.716 14.5663V15.2523C125.716 15.8571 125.561 16.4248 125.246 16.9587C124.93 17.4892 124.507 17.9521 123.976 18.3441C123.445 18.736 122.819 19.0469 122.111 19.2767C121.398 19.5064 120.634 19.6213 119.823 19.6213H119.728L126.787 26.4706H122.646L115.557 19.6213H101.628V26.4706H98.3984V17.0938Z" fill="#00A79D"/>
<path d="M127.412 19.0115V17.6869C127.412 16.6563 127.662 15.6866 128.163 14.7776C128.664 13.8686 129.346 13.0813 130.201 12.4089C131.056 11.7365 132.067 11.206 133.228 10.814C134.389 10.4221 135.629 10.2261 136.945 10.2261H157.432V12.7536H136.945C136.069 12.7536 135.244 12.8854 134.484 13.1455C133.72 13.4057 133.055 13.7605 132.494 14.1998C131.928 14.6424 131.479 15.1628 131.147 15.7575C130.81 16.3556 130.646 16.9976 130.646 17.6836V19.0081C130.646 19.6941 130.814 20.3395 131.147 20.9342C131.479 21.5322 131.933 22.0527 132.494 22.4919C133.06 22.9345 133.724 23.286 134.484 23.5461C135.249 23.8097 136.069 23.9381 136.945 23.9381H150.373C151.125 23.9381 151.789 23.8401 152.364 23.6441C152.938 23.4482 153.421 23.1813 153.806 22.8467C154.194 22.5121 154.505 22.1236 154.747 21.6809C154.989 21.2383 155.161 20.772 155.265 20.282H144.795L147.17 17.7545H158.624V19.0081C158.624 20.1198 158.426 21.1369 158.029 22.0527C157.631 22.9683 157.074 23.7556 156.349 24.4078C155.628 25.0633 154.76 25.5702 153.745 25.9317C152.731 26.2932 151.608 26.4724 150.373 26.4724H136.945C135.629 26.4724 134.389 26.2764 133.228 25.8844C132.067 25.4924 131.06 24.9586 130.201 24.2896C129.342 23.6205 128.664 22.8298 128.163 21.9209C127.662 21.0119 127.412 20.0421 127.412 19.0115Z" fill="#00A79D"/>
<path d="M161.764 10H164.993V26.4727H161.764V10Z" fill="#00A79D"/>
<path d="M167.816 19.0115V17.6869C167.816 16.6563 168.067 15.6866 168.568 14.7776C169.07 13.8686 169.751 13.0813 170.606 12.4089C171.461 11.7365 172.472 11.206 173.633 10.814C174.795 10.4221 176.034 10.2261 177.35 10.2261H193.382V12.7536H177.35C176.474 12.7536 175.649 12.8854 174.89 13.1455C174.125 13.4057 173.46 13.7605 172.899 14.1998C172.333 14.6424 171.884 15.1628 171.551 15.7575C171.216 16.3556 171.051 16.9976 171.051 17.6836V19.0081C171.051 19.6941 171.22 20.3395 171.551 20.9342C171.884 21.5322 172.338 22.0527 172.899 22.4919C173.464 22.9345 174.13 23.286 174.89 23.5461C175.653 23.8097 176.474 23.9381 177.35 23.9381H193.382V26.4656H177.35C176.034 26.4656 174.795 26.2696 173.633 25.8776C172.472 25.4857 171.465 24.9518 170.606 24.2828C169.746 23.6138 169.07 22.823 168.568 21.9141C168.067 21.0119 167.816 20.0421 167.816 19.0115Z" fill="#00A79D"/>
<path d="M152.719 16L149.774 19.1324L138.592 16.1318L152.719 16Z" fill="#00A79D"/>
</svg>
