<svg width="26" height="36" viewBox="0 0 26 36" fill="none" xmlns="http://www.w3.org/2000/svg">
<path d="M8.71265 5.5982C8.71265 5.32139 8.7943 5.05081 8.94726 4.82065C9.10022 4.5905 9.31764 4.41111 9.57201 4.30518C9.82638 4.19925 10.1063 4.17154 10.3763 4.22554C10.6464 4.27954 10.8944 4.41284 11.0891 4.60857C11.2838 4.8043 11.4164 5.05367 11.4701 5.32516C11.5238 5.59664 11.4962 5.87805 11.3908 6.13378C11.2855 6.38952 11.1071 6.6081 10.8781 6.76188C10.6492 6.91567 10.3801 6.99775 10.1047 6.99775C9.73702 6.99291 9.38573 6.84391 9.1257 6.58248C8.86567 6.32106 8.71746 5.96788 8.71265 5.5982ZM15.8215 6.99775C16.0969 6.99775 16.366 6.91567 16.5949 6.76188C16.8239 6.6081 17.0023 6.38952 17.1077 6.13378C17.213 5.87805 17.2406 5.59664 17.1869 5.32516C17.1332 5.05367 17.0006 4.8043 16.8059 4.60857C16.6112 4.41284 16.3632 4.27954 16.0931 4.22554C15.8231 4.17154 15.5432 4.19925 15.2888 4.30518C15.0344 4.41111 14.817 4.5905 14.6641 4.82065C14.5111 5.05081 14.4295 5.32139 14.4295 5.5982C14.4343 5.96788 14.5825 6.32106 14.8425 6.58248C15.1025 6.84391 15.4538 6.99291 15.8215 6.99775ZM13.0003 12.5213C13.3674 12.5213 13.7262 12.4119 14.0315 12.2068C14.3367 12.0018 14.5746 11.7103 14.7151 11.3693C14.8556 11.0284 14.8923 10.6532 14.8207 10.2912C14.7491 9.9292 14.5723 9.5967 14.3127 9.33573C14.0531 9.07476 13.7224 8.89703 13.3624 8.82503C13.0023 8.75302 12.6291 8.78998 12.29 8.93122C11.9508 9.07245 11.6609 9.31163 11.457 9.61851C11.253 9.92538 11.1442 10.2862 11.1442 10.6552C11.1442 11.1501 11.3397 11.6248 11.6878 11.9747C12.0359 12.3247 12.508 12.5213 13.0003 12.5213ZM7.15352 12.5213C7.52063 12.5213 7.87948 12.4119 8.18472 12.2068C8.48995 12.0018 8.72786 11.7103 8.86834 11.3693C9.00883 11.0284 9.04558 10.6532 8.97397 10.2912C8.90235 9.9292 8.72557 9.5967 8.46599 9.33573C8.20641 9.07476 7.87568 8.89703 7.51563 8.82503C7.15558 8.75302 6.78238 8.78998 6.44322 8.93122C6.10406 9.07245 5.81418 9.31163 5.61023 9.61851C5.40627 9.92538 5.29741 10.2862 5.29741 10.6552C5.29741 11.1501 5.49297 11.6248 5.84106 11.9747C6.18914 12.3247 6.66125 12.5213 7.15352 12.5213ZM18.847 12.5213C19.2141 12.5213 19.573 12.4119 19.8782 12.2068C20.1834 12.0018 20.4213 11.7103 20.5618 11.3693C20.7023 11.0284 20.7391 10.6532 20.6674 10.2912C20.5958 9.9292 20.419 9.5967 20.1595 9.33573C19.8999 9.07476 19.5692 8.89703 19.2091 8.82503C18.8491 8.75302 18.4759 8.78998 18.1367 8.93122C17.7975 9.07245 17.5077 9.31163 17.3037 9.61851C17.0997 9.92538 16.9909 10.2862 16.9909 10.6552C16.9909 10.9003 17.0389 11.1429 17.1322 11.3693C17.2255 11.5958 17.3622 11.8015 17.5345 11.9747C17.7069 12.148 17.9115 12.2855 18.1367 12.3793C18.3619 12.473 18.6033 12.5213 18.847 12.5213ZM10.0676 13.9582C9.70051 13.9582 9.34165 14.0676 9.03641 14.2727C8.73118 14.4777 8.49328 14.7691 8.35279 15.1101C8.21231 15.4511 8.17555 15.8263 8.24717 16.1883C8.31879 16.5503 8.49556 16.8828 8.75515 17.1437C9.01473 17.4047 9.34545 17.5824 9.7055 17.6544C10.0656 17.7265 10.4388 17.6895 10.7779 17.5483C11.1171 17.407 11.407 17.1678 11.6109 16.861C11.8149 16.5541 11.9237 16.1933 11.9237 15.8242C11.9237 15.3293 11.7282 14.8547 11.3801 14.5047C11.032 14.1548 10.5599 13.9582 10.0676 13.9582ZM15.9329 13.9582C15.5658 13.9582 15.2069 14.0676 14.9017 14.2727C14.5965 14.4777 14.3586 14.7691 14.2181 15.1101C14.0776 15.4511 14.0408 15.8263 14.1125 16.1883C14.1841 16.5503 14.3609 16.8828 14.6204 17.1437C14.88 17.4047 15.2108 17.5824 15.5708 17.6544C15.9309 17.7265 16.3041 17.6895 16.6432 17.5483C16.9824 17.407 17.2723 17.1678 17.4762 16.861C17.6802 16.5541 17.789 16.1933 17.789 15.8242C17.789 15.3293 17.5935 14.8547 17.2454 14.5047C16.8973 14.1548 16.4252 13.9582 15.9329 13.9582ZM11.1442 27.991C11.1442 28.5446 10.9809 29.0858 10.6749 29.5461C10.369 30.0064 9.93418 30.3652 9.42544 30.577C8.91671 30.7889 8.3569 30.8443 7.81683 30.7363C7.27675 30.6283 6.78066 30.3617 6.39129 29.9702C6.00192 29.5788 5.73675 29.08 5.62933 28.5371C5.5219 27.9941 5.57704 27.4313 5.78776 26.9198C5.99849 26.4084 6.35534 25.9712 6.8132 25.6636C7.27105 25.3561 7.80934 25.1919 8.35999 25.1919C9.0984 25.1919 9.80656 25.4868 10.3287 26.0117C10.8508 26.5367 11.1442 27.2486 11.1442 27.991ZM9.28805 27.991C9.28805 27.8065 9.23362 27.6261 9.13164 27.4726C9.02966 27.3192 8.88472 27.1996 8.71514 27.129C8.54556 27.0584 8.35896 27.0399 8.17894 27.0759C7.99891 27.1119 7.83355 27.2007 7.70376 27.3312C7.57397 27.4617 7.48558 27.628 7.44977 27.809C7.41396 27.99 7.43234 28.1776 7.50258 28.348C7.57282 28.5185 7.69177 28.6643 7.84439 28.7668C7.99701 28.8693 8.17644 28.924 8.35999 28.924C8.60613 28.924 8.84218 28.8257 9.01623 28.6507C9.19027 28.4758 9.28805 28.2384 9.28805 27.991ZM20.4247 27.991C20.4247 28.5446 20.2614 29.0858 19.9555 29.5461C19.6495 30.0064 19.2147 30.3652 18.706 30.577C18.1972 30.7889 17.6374 30.8443 17.0974 30.7363C16.5573 30.6283 16.0612 30.3617 15.6718 29.9702C15.2825 29.5788 15.0173 29.08 14.9099 28.5371C14.8024 27.9941 14.8576 27.4313 15.0683 26.9198C15.279 26.4084 15.6359 25.9712 16.0937 25.6636C16.5516 25.3561 17.0899 25.1919 17.6405 25.1919C18.3789 25.1919 19.0871 25.4868 19.6092 26.0117C20.1314 26.5367 20.4247 27.2486 20.4247 27.991ZM18.5686 27.991C18.5686 27.8065 18.5142 27.6261 18.4122 27.4726C18.3102 27.3192 18.1653 27.1996 17.9957 27.129C17.8261 27.0584 17.6395 27.0399 17.4595 27.0759C17.2794 27.1119 17.1141 27.2007 16.9843 27.3312C16.8545 27.4617 16.7661 27.628 16.7303 27.809C16.6945 27.99 16.7129 28.1776 16.7831 28.348C16.8534 28.5185 16.9723 28.6643 17.1249 28.7668C17.2775 28.8693 17.457 28.924 17.6405 28.924C17.8867 28.924 18.1227 28.8257 18.2968 28.6507C18.4708 28.4758 18.5686 28.2384 18.5686 27.991ZM25.993 27.991C25.993 29.9706 25.2108 31.8692 23.8184 33.269C22.4261 34.6688 20.5377 35.4553 18.5686 35.4553H7.43194C5.64477 35.4553 3.91757 34.8071 2.56744 33.6299C1.21731 32.4527 0.334873 30.8253 0.0821282 29.0466C-0.170616 27.2679 0.223298 25.4572 1.19155 23.947C2.1598 22.4368 3.63741 21.3284 5.3531 20.8253C2.6035 18.8158 0.746758 15.8029 0.181159 12.433C-0.38444 9.06302 0.386154 5.60443 2.32764 2.7991C3.06822 1.74389 3.95586 0.801213 4.96332 0H21.0372C22.0447 0.801213 22.9323 1.74389 23.6729 2.7991C25.6144 5.60443 26.385 9.06302 25.8194 12.433C25.2538 15.8029 23.397 18.8158 20.6474 20.8253C22.1896 21.2775 23.5443 22.2204 24.5081 23.5124C25.472 24.8045 25.993 26.3759 25.993 27.991ZM13.0003 20.5267C15.7077 20.5267 18.3043 19.4454 20.2188 17.5207C22.1333 15.5959 23.2089 12.9854 23.2089 10.2634C23.2125 8.16349 22.5636 6.11492 21.3527 4.40392C20.9569 3.81832 20.4961 3.27991 19.9792 2.7991H6.00273C5.48529 3.28471 5.01881 3.82248 4.61066 4.40392C3.54566 5.94369 2.92067 7.7474 2.80358 9.61915C2.68649 11.4909 3.08177 13.3591 3.94649 15.0209C4.81121 16.6827 6.11231 18.0745 7.70847 19.0452C9.30463 20.0158 11.1348 20.5282 13.0003 20.5267ZM23.2089 27.991C23.2089 26.7537 22.72 25.5671 21.8497 24.6922C20.9795 23.8173 19.7993 23.3258 18.5686 23.3258H7.43194C6.20126 23.3258 5.02099 23.8173 4.15077 24.6922C3.28055 25.5671 2.79167 26.7537 2.79167 27.991C2.79167 29.2283 3.28055 30.4149 4.15077 31.2898C5.02099 32.1646 6.20126 32.6562 7.43194 32.6562H18.5686C19.178 32.6562 19.7814 32.5355 20.3443 32.301C20.9073 32.0666 21.4189 31.723 21.8497 31.2898C22.2806 30.8566 22.6224 30.3423 22.8556 29.7763C23.0888 29.2103 23.2089 28.6036 23.2089 27.991Z" fill="url(#paint0_linear_1519_3976)"/>
<defs>
<linearGradient id="paint0_linear_1519_3976" x1="0" y1="17.7276" x2="26.0005" y2="17.7276" gradientUnits="userSpaceOnUse">
<stop stop-color="#00A79D"/>
<stop offset="1" stop-color="#1A3B39"/>
</linearGradient>
</defs>
</svg>
