<svg width="39" height="39" viewBox="0 0 39 39" fill="none" xmlns="http://www.w3.org/2000/svg">
<path d="M18.2418 4.83496H8.2015C4.99442 4.83496 3.38281 6.46268 3.38281 9.702V35.4554H12.0855V29.4119C12.0855 28.7511 12.6334 28.2032 13.2942 28.2032C13.9549 28.2032 14.5029 28.735 14.5029 29.4119V35.4554H23.0444V9.702C23.0444 6.46268 21.4489 4.83496 18.2418 4.83496ZM17.3232 20.5481H9.34574C8.68499 20.5481 8.13704 20.0001 8.13704 19.3394C8.13704 18.6786 8.68499 18.1307 9.34574 18.1307H17.3232C17.9839 18.1307 18.5319 18.6786 18.5319 19.3394C18.5319 20.0001 17.9839 20.5481 17.3232 20.5481ZM17.3232 14.5046H9.34574C8.68499 14.5046 8.13704 13.9566 8.13704 13.2959C8.13704 12.6351 8.68499 12.0872 9.34574 12.0872H17.3232C17.9839 12.0872 18.5319 12.6351 18.5319 13.2959C18.5319 13.9566 17.9839 14.5046 17.3232 14.5046Z" fill="url(#paint0_linear_2291_1233)"/>
<path d="M37.0663 34.2468H33.408V29.412C34.939 28.9124 36.051 27.4781 36.051 25.7859V22.5627C36.051 20.4515 34.3266 18.7271 32.2154 18.7271C30.1042 18.7271 28.3798 20.4515 28.3798 22.5627V25.7859C28.3798 27.4619 29.4757 28.8801 30.9744 29.3959V34.2468H1.61105C0.950289 34.2468 0.402344 34.7947 0.402344 35.4555C0.402344 36.1162 0.950289 36.6642 1.61105 36.6642H32.1187C32.1509 36.6642 32.167 36.6803 32.1993 36.6803C32.2315 36.6803 32.2476 36.6642 32.2798 36.6642H37.0663C37.7271 36.6642 38.275 36.1162 38.275 35.4555C38.275 34.7947 37.7271 34.2468 37.0663 34.2468Z" fill="url(#paint1_linear_2291_1233)"/>
<defs>
<linearGradient id="paint0_linear_2291_1233" x1="3.38281" y1="20.1452" x2="23.0444" y2="20.1452" gradientUnits="userSpaceOnUse">
<stop stop-color="#00A79D"/>
<stop offset="1" stop-color="#1A3B39"/>
</linearGradient>
<linearGradient id="paint1_linear_2291_1233" x1="0.402344" y1="27.7037" x2="38.275" y2="27.7037" gradientUnits="userSpaceOnUse">
<stop stop-color="#00A79D"/>
<stop offset="1" stop-color="#1A3B39"/>
</linearGradient>
</defs>
</svg>
