<svg width="39" height="39" viewBox="0 0 39 39" fill="none" xmlns="http://www.w3.org/2000/svg">
<path d="M36.0024 15.0362L32.7792 13.4246C32.1829 13.1345 31.4415 13.3601 31.1514 13.9564C30.8452 14.5688 31.087 15.294 31.6833 15.5841L34.2457 16.8573V24.5769L28.2022 24.593V8.05795C28.2022 4.83475 26.0427 3.22314 23.3674 3.22314H10.4746C7.79933 3.22314 5.63978 4.83475 5.63978 8.05795V34.2465H3.22237C2.56162 34.2465 2.01367 34.7944 2.01367 35.4552C2.01367 36.116 2.56162 36.6639 3.22237 36.6639H30.6196C31.2804 36.6639 31.8283 36.116 31.8283 35.4552C31.8283 34.7944 31.2804 34.2465 30.6196 34.2465H28.2022V27.0104L35.4544 26.9943C36.1313 26.9943 36.6631 26.4463 36.6631 25.7856V16.116C36.6631 15.6647 36.4053 15.2457 36.0024 15.0362ZM9.66878 11.1039C9.66878 8.86375 11.0386 8.05795 12.7147 8.05795H21.1434C22.8033 8.05795 24.1732 8.86375 24.1732 11.1039V13.0862C24.1732 15.3102 22.8033 16.116 21.1273 16.116H12.7147C11.0386 16.116 9.66878 15.3102 9.66878 13.07V11.1039ZM10.4746 19.7421H15.3094C15.9702 19.7421 16.5181 20.29 16.5181 20.9508C16.5181 21.6115 15.9702 22.1595 15.3094 22.1595H10.4746C9.81383 22.1595 9.26588 21.6115 9.26588 20.9508C9.26588 20.29 9.81383 19.7421 10.4746 19.7421Z" fill="url(#paint0_linear_2291_672)"/>
<defs>
<linearGradient id="paint0_linear_2291_672" x1="2.01367" y1="19.9435" x2="36.6631" y2="19.9435" gradientUnits="userSpaceOnUse">
<stop stop-color="#00A79D"/>
<stop offset="1" stop-color="#1A3B39"/>
</linearGradient>
</defs>
</svg>
